<?xml version="1.0" standalone="no"?>
<!DOCTYPE svg PUBLIC "-//W3C//DTD SVG 20010904//EN"
 "http://www.w3.org/TR/2001/REC-SVG-20010904/DTD/svg10.dtd">
<svg version="1.0" xmlns="http://www.w3.org/2000/svg"
 width="3333.000000pt" height="3333.000000pt" viewBox="0 0 3333.000000 3333.000000"
 preserveAspectRatio="xMidYMid meet">
<metadata>
Created by potrace 1.14, written by Peter Selinger 2001-2017
</metadata>
<g transform="translate(0.000000,3333.000000) scale(0.100000,-0.100000)"
fill="#000000" stroke="none">
<path d="M6570 28449 c-1440 -70 -2825 -594 -3957 -1495 -430 -343 -842 -761
-1172 -1189 -623 -810 -1058 -1736 -1275 -2718 -69 -310 -108 -564 -143 -927
-17 -175 -18 -465 -18 -5455 0 -4990 1 -5280 18 -5455 47 -488 122 -899 237
-1302 325 -1143 920 -2157 1760 -2999 526 -527 1080 -933 1727 -1266 909 -467
1830 -713 2858 -763 290 -14 19830 -14 20120 0 1257 61 2419 435 3466 1115
633 412 1235 969 1698 1570 623 810 1058 1736 1275 2718 69 310 108 564 143
927 17 175 18 465 18 5455 0 4990 -1 5280 -18 5455 -47 488 -122 899 -237
1302 -325 1143 -920 2157 -1760 2999 -526 527 -1080 933 -1727 1266 -909 468
-1830 713 -2858 763 -254 12 -19903 11 -20155 -1z m11560 -3265 c0 -18 -120
-1696 -124 -1735 l-5 -47 82 -12 c620 -89 1203 -290 1742 -600 374 -215 701
-454 990 -723 l79 -74 -214 -338 c-237 -374 -298 -449 -404 -499 -182 -86
-275 -61 -699 193 -302 181 -420 245 -604 330 -73 34 -191 88 -262 120 -216
100 -425 159 -683 194 l-96 14 -6 -61 c-13 -136 -288 -4357 -284 -4361 2 -2
318 -111 703 -240 782 -264 862 -294 1092 -405 385 -186 671 -388 958 -675
329 -328 577 -702 684 -1030 107 -329 148 -660 138 -1134 -6 -303 -16 -427
-52 -663 -65 -420 -164 -734 -345 -1093 -283 -562 -684 -1040 -1183 -1409
-617 -457 -1420 -732 -2362 -807 l-151 -12 -53 -791 c-29 -435 -57 -825 -62
-866 -18 -146 -125 -313 -232 -364 -85 -40 -150 -46 -489 -46 l-318 0 0 23 c0
12 27 456 60 986 33 530 60 985 60 1009 0 42 -1 44 -17 29 -16 -14 -32 -14
-183 4 -572 66 -1133 207 -1590 399 -607 255 -1210 651 -1672 1099 -70 68
-128 128 -128 133 0 24 504 795 542 831 50 46 200 121 283 142 80 20 134 19
208 -6 90 -30 169 -79 411 -259 425 -316 573 -406 1056 -649 318 -159 507
-231 750 -285 120 -26 408 -71 415 -64 4 4 320 4641 327 4801 l3 59 -85 24
c-618 177 -1370 481 -1800 728 -285 164 -499 318 -672 484 -347 333 -634 816
-767 1289 -139 493 -168 1098 -76 1594 99 534 382 1138 747 1596 82 102 291
316 398 408 369 314 959 641 1434 795 298 96 686 169 1056 200 242 19 239 19
244 43 3 12 21 318 40 679 40 746 35 713 133 857 54 79 108 130 163 153 79 34
118 37 468 37 193 1 352 -2 352 -5z"/>
<path d="M16810 22003 c-369 -41 -898 -199 -1225 -366 -371 -190 -654 -482
-836 -862 -93 -194 -140 -382 -160 -643 -7 -81 -16 -149 -20 -152 -13 -9 8
-264 31 -384 51 -264 193 -555 379 -778 165 -197 473 -434 737 -566 142 -71
863 -377 871 -369 3 4 273 4040 273 4095 0 17 -3 31 -7 30 -5 0 -24 -3 -43 -5z"/>
<path d="M17486 15931 c-18 -226 -287 -4484 -283 -4488 13 -13 371 48 551 93
387 98 774 292 1091 547 187 151 402 400 513 594 136 237 231 525 277 837 22
148 31 360 17 389 -6 12 -13 87 -16 167 -20 540 -215 892 -689 1246 -345 258
-455 313 -1158 579 l-297 112 -6 -76z"/>
</g>
</svg>
